# xmcd
#
# Track frame offsets: 
#        150
#        11488
#        25833
#        44902
#        58163
#        73545
#        89317
#        102023
#        118880
#        137553
#
# Disc length: 2312 seconds
#
# Revision: 1
# Processed by: cddbd v1.5.2PL0 Copyright (c) Steve Scherf et al.
# Submitted via: ExactAudioCopy v0.95b3
#
DISCID=8809060a
DTITLE=Noisettes - What's The Time Mr. Wolf?
DYEAR=2007
DGENRE=Rock
TTITLE0=Don't Give Up
TTITLE1=Scratch Your Name
TTITLE2=The Count Of Monte Cristo
TTITLE3=Sister Rosetta (Capture The Spirit)
TTITLE4=Bridge To Canada
TTITLE5=IWE
TTITLE6=Nothing To Dread
TTITLE7=Mind The Gap
TTITLE8=Cannot Even (Break Free)
TTITLE9=Hierarchy
EXTD=
EXTT0=
EXTT1=
EXTT2=
EXTT3=
EXTT4=
EXTT5=
EXTT6=
EXTT7=
EXTT8=
EXTT9=
PLAYORDER=
